<?xml version="1.0" standalone="no"?>
<!DOCTYPE svg PUBLIC "-//W3C//DTD SVG 20010904//EN"
 "http://www.w3.org/TR/2001/REC-SVG-20010904/DTD/svg10.dtd">
<svg version="1.0" xmlns="http://www.w3.org/2000/svg"
 width="900.000000pt" height="700.000000pt" viewBox="0 0 900.000000 700.000000"
 preserveAspectRatio="xMidYMid meet">

<g transform="translate(0.000000,700.000000) scale(0.100000,-0.100000)"
fill="#000000" stroke="none">
<path d="M0 3500 l0 -3500 4500 0 4500 0 0 3500 0 3500 -4500 0 -4500 0 0
-3500z m4875 2211 c406 -68 724 -209 1065 -472 109 -84 310 -281 392 -384 236
-297 403 -626 473 -935 9 -41 19 -81 21 -87 3 -10 66 -13 271 -13 147 0 278
-3 291 -6 18 -5 22 -13 20 -33 l-3 -26 -676 -3 -676 -2 13 -63 c32 -156 40
-386 17 -514 l-5 -33 660 0 c363 0 667 -3 676 -6 18 -7 22 -39 6 -49 -6 -3
-135 -6 -289 -5 l-279 1 -6 -48 c-25 -182 -117 -474 -203 -646 -103 -206 -272
-450 -424 -611 -466 -496 -1054 -756 -1709 -756 -459 0 -877 125 -1255 375
-394 260 -688 601 -895 1038 -82 173 -133 336 -176 560 l-17 88 -246 -1 c-259
-1 -274 1 -258 44 6 15 63 16 648 16 l641 0 -5 33 c-23 128 -15 358 17 514
l13 63 -656 2 c-630 3 -656 4 -659 22 -8 38 11 41 275 46 l256 5 22 90 c65
268 184 528 354 775 338 493 864 861 1411 988 91 22 263 49 345 56 119 9 433
-4 550 -23z m-2945 -2245 l0 -124 -70 -1 c-60 0 -71 2 -85 21 -20 29 -19 77 1
107 14 19 24 22 60 19 l44 -3 0 52 c0 50 2 53 25 53 l25 0 0 -124z m600 0 l0
-124 -67 -1 c-83 0 -103 14 -103 74 0 56 24 79 80 73 l40 -4 0 53 c0 50 1 53
25 53 l25 0 0 -124z m4639 93 c35 -12 51 -51 33 -79 -8 -13 -6 -19 9 -28 30
-19 26 -85 -7 -111 -39 -31 -107 -29 -139 4 -30 29 -33 75 -6 99 16 15 18 22
9 41 -12 28 3 62 35 75 29 12 29 12 66 -1z m-752 -21 c31 -29 31 -82 -2 -131
l-26 -37 31 0 c25 0 30 -4 30 -25 0 -25 0 -25 -97 -25 l-96 0 55 58 c64 67 79
99 53 118 -26 20 -47 6 -43 -29 4 -38 -24 -60 -46 -37 -29 30 -29 65 -1 98 23
27 33 32 73 32 33 0 52 -6 69 -22z m274 -7 c26 -26 29 -36 29 -91 0 -55 -3
-65 -29 -91 -23 -23 -38 -29 -71 -29 -23 0 -50 5 -61 10 -53 29 -67 147 -23
199 22 27 32 31 76 31 41 0 54 -5 79 -29z m250 19 c57 -31 67 -162 15 -207
-41 -35 -108 -32 -147 6 -26 26 -29 36 -29 89 0 50 4 66 26 91 22 26 33 31 71
31 24 0 53 -5 64 -10z m-4818 -77 c32 -37 25 -55 -28 -75 -27 -10 -38 -16 -23
-13 20 4 30 0 37 -14 14 -25 5 -31 -45 -31 -34 0 -47 5 -63 26 -28 35 -26 69
4 99 30 31 93 34 118 8z m181 9 c9 -16 -12 -35 -33 -29 -30 8 -26 -5 9 -25 53
-30 36 -88 -26 -88 -42 0 -64 9 -64 25 0 21 17 27 39 15 11 -6 22 -6 25 -1 3
5 -6 12 -19 15 -33 8 -51 46 -36 75 9 16 21 21 56 21 24 0 46 -4 49 -8z m420
-14 c27 -41 23 -50 -29 -69 -27 -11 -38 -17 -23 -14 20 4 30 0 37 -14 14 -25
5 -31 -45 -31 -34 0 -47 5 -63 26 -28 35 -26 69 4 99 33 34 98 35 119 3z"/>
<path d="M4335 5674 c-16 -2 -82 -11 -146 -19 -504 -66 -1013 -341 -1369 -740
-264 -295 -445 -627 -539 -987 l-28 -108 371 0 371 0 24 68 c114 327 337 612
626 804 263 174 546 258 870 258 377 0 706 -117 1003 -355 98 -80 243 -238
313 -344 58 -87 145 -264 180 -363 l24 -68 367 0 c289 0 367 3 363 13 -2 6
-11 42 -20 80 -51 214 -183 511 -311 702 -249 371 -567 654 -939 835 -320 156
-585 219 -950 225 -99 2 -193 1 -210 -1z m315 -174 l0 -30 -85 0 -85 0 0 -39
0 -39 75 -7 c75 -7 75 -7 75 -36 l0 -29 -75 0 -75 0 0 -40 0 -40 90 0 90 0 0
-30 0 -30 -120 0 -120 0 0 175 0 175 115 0 115 0 0 -30z m275 -8 c81 -16 90
-20 93 -41 5 -33 -8 -41 -50 -32 -25 6 -38 5 -41 -3 -2 -6 -15 -68 -28 -138
-23 -127 -23 -128 -50 -128 -15 0 -30 3 -32 8 -3 4 7 67 21 141 27 143 26 150
-25 151 -27 0 -34 10 -26 38 6 26 17 27 138 4z m-669 -26 c29 -29 34 -41 34
-79 0 -60 -33 -100 -96 -116 -40 -10 -45 -15 -41 -34 3 -12 9 -39 12 -59 8
-40 8 -40 -52 -38 -5 0 -15 42 -25 93 -9 50 -23 127 -31 169 l-14 77 51 9
c100 19 125 15 162 -22z"/>
<path d="M4137 5433 c-16 -4 -18 -11 -12 -41 12 -69 13 -70 48 -63 19 4 37 17
46 33 13 23 13 29 -2 52 -17 25 -37 30 -80 19z"/>
<path d="M4300 4875 c-198 -27 -420 -108 -585 -213 -387 -246 -626 -610 -701
-1062 -29 -177 -15 -422 35 -615 150 -583 658 -1030 1261 -1111 594 -79 1170
191 1493 698 218 344 283 782 178 1195 -26 100 -107 294 -157 377 -286 470
-779 749 -1319 745 -60 -1 -153 -7 -205 -14z m-164 -438 c204 -59 310 -195
384 -493 82 -329 141 -426 438 -721 l193 -192 35 31 c76 67 115 200 94 329
-30 200 -142 304 -354 334 -120 16 -147 138 -43 186 116 52 331 -11 460 -135
158 -152 250 -384 233 -590 -15 -190 -76 -331 -205 -469 -44 -47 -44 -48 -51
-140 -9 -117 -34 -176 -102 -239 l-50 -48 -364 0 -364 0 -6 25 c-9 36 21 110
64 156 37 42 106 69 174 69 l38 0 0 54 c0 68 -28 124 -94 185 -161 152 -176
182 -186 366 -8 141 -19 194 -56 266 -20 41 -105 129 -124 129 -3 0 -13 -14
-21 -32 -9 -21 -29 -40 -59 -54 -51 -26 -160 -142 -160 -172 0 -20 33 -32 89
-32 46 0 121 -31 138 -56 17 -27 15 -57 -12 -178 -18 -84 -17 -154 5 -281 17
-99 9 -229 -18 -282 -50 -97 -154 -163 -255 -163 -99 0 -167 48 -167 117 0 45
19 79 75 133 70 66 78 92 83 262 6 187 -12 257 -87 343 -57 65 -86 143 -76
205 4 22 22 71 41 109 58 117 69 234 30 310 -24 45 -53 60 -178 92 -125 33
-160 54 -217 133 -80 112 -36 224 96 241 83 10 116 27 173 88 65 70 116 105
177 122 72 20 142 18 229 -8z"/>
<path d="M4010 4338 c25 -55 25 -125 0 -219 -44 -167 -9 -259 100 -259 83 0
140 57 140 139 0 68 -96 293 -150 351 -22 24 -36 30 -69 30 l-40 0 19 -42z"/>
<path d="M3863 4350 c-16 -10 -53 -45 -82 -78 -58 -66 -118 -99 -200 -109 -43
-5 -47 -8 -43 -28 3 -16 -2 -27 -16 -34 -11 -6 -22 -7 -26 -4 -12 12 -6 -8 13
-46 36 -69 77 -95 197 -125 60 -15 123 -36 140 -47 117 -72 138 -256 50 -441
-42 -90 -47 -112 -30 -167 7 -26 23 -56 35 -67 82 -74 120 -191 120 -372 0
-196 -16 -247 -107 -344 -30 -31 -54 -66 -54 -77 0 -57 123 -68 199 -18 23 15
53 46 68 69 25 37 28 52 31 137 3 63 -2 119 -12 164 -22 94 -19 186 8 292 13
50 20 94 16 99 -5 5 -48 15 -96 23 -96 15 -117 28 -134 80 -15 44 -1 86 43
129 17 18 47 48 65 68 18 20 50 45 72 56 34 17 41 26 46 60 9 55 26 67 72 51
104 -36 203 -142 238 -255 9 -28 19 -110 23 -186 9 -177 22 -207 141 -321 113
-108 143 -166 148 -285 5 -106 -2 -114 -106 -114 -88 0 -131 -19 -157 -70
l-16 -30 314 0 314 0 41 44 c48 52 72 122 72 208 0 73 16 105 91 185 133 144
193 389 145 597 -19 81 -80 200 -143 280 -102 128 -309 214 -422 175 -17 -6
-31 -17 -31 -25 0 -13 30 -23 127 -43 82 -16 143 -50 204 -112 173 -175 183
-486 22 -646 -41 -41 -48 -53 -48 -88 0 -36 -3 -40 -27 -43 -23 -3 -30 3 -49
40 -12 24 -107 129 -223 248 -310 315 -368 408 -446 722 -50 204 -96 303 -174
376 -58 55 -87 69 -62 30 8 -13 17 -34 21 -48 4 -14 18 -47 31 -75 28 -60 54
-157 54 -200 0 -52 -44 -131 -88 -159 -113 -71 -229 -51 -288 49 -37 63 -41
133 -15 235 25 101 27 167 4 214 -21 44 -33 49 -70 26z m21 -76 c9 -8 16 -19
16 -24 0 -10 -28 -40 -37 -40 -10 0 -43 32 -43 41 0 10 29 39 40 39 5 0 16 -7
24 -16z"/>
<path d="M2236 3038 c10 -76 64 -287 100 -392 19 -55 66 -164 104 -241 251
-510 677 -922 1180 -1142 641 -280 1414 -236 2010 115 476 280 849 720 1041
1228 56 150 119 392 119 460 0 12 -59 14 -360 14 l-359 0 -10 -37 c-5 -21 -17
-65 -25 -99 -34 -131 -120 -317 -212 -456 -65 -97 -211 -256 -306 -333 -297
-238 -626 -355 -1003 -355 -398 0 -749 132 -1047 394 -225 198 -406 485 -474
750 -8 34 -20 78 -25 99 l-10 37 -365 0 -364 0 6 -42z m3464 -1002 c0 -8 3
-21 6 -29 3 -10 -3 -17 -18 -22 -66 -18 -98 -56 -98 -113 0 -44 39 -95 86
-111 36 -12 44 -12 77 4 21 10 45 31 53 46 16 32 30 35 56 15 16 -12 16 -14
-2 -43 -44 -74 -136 -109 -213 -84 -75 25 -136 129 -121 207 8 46 57 102 109
125 48 22 65 24 65 5z m-2212 -41 c43 -19 78 -50 97 -86 13 -24 12 -27 -15
-42 -27 -17 -29 -16 -35 2 -11 36 -63 71 -104 71 -59 0 -121 -61 -121 -120 0
-52 57 -110 108 -110 15 0 18 -6 14 -30 -4 -25 -9 -30 -31 -30 -38 0 -106 47
-130 90 -42 75 -20 174 51 229 54 43 105 51 166 26z m1981 -282 c45 -80 81
-149 81 -153 0 -7 -51 -33 -55 -28 -1 2 -39 70 -83 152 -74 136 -79 151 -64
163 9 7 22 13 29 13 6 0 48 -66 92 -147z m-1624 72 c124 -94 84 -283 -66 -316
-114 -26 -235 86 -215 198 24 132 179 197 281 118z m1425 -15 c14 -27 7 -36
-36 -50 -27 -9 -34 -16 -29 -29 4 -9 27 -68 51 -131 41 -107 43 -116 27 -128
-10 -7 -24 -11 -31 -10 -8 2 -34 57 -59 123 -24 66 -48 123 -52 128 -4 4 -22
2 -41 -4 -29 -11 -35 -10 -47 7 -7 10 -12 23 -10 28 3 10 181 84 204 85 7 1
17 -8 23 -19z m-1080 -100 c49 -25 56 -37 35 -60 -16 -18 -18 -18 -50 2 -41
24 -88 21 -93 -6 -3 -13 14 -36 52 -70 50 -47 56 -56 56 -93 0 -52 -29 -90
-76 -99 -44 -8 -105 9 -141 40 -27 23 -27 25 -10 44 19 20 19 20 54 -4 44 -30
88 -31 103 -4 14 27 1 50 -48 84 -68 47 -81 109 -33 157 36 36 92 39 151 9z
m794 4 c14 -35 6 -42 -63 -55 -91 -16 -95 -19 -87 -63 6 -31 10 -35 29 -31 75
17 120 25 123 23 1 -2 5 -15 9 -30 7 -29 8 -29 -87 -48 l-57 -11 6 -32 c3 -18
9 -35 12 -39 4 -4 42 -1 85 7 43 8 82 13 87 9 9 -5 13 -54 5 -54 -2 0 -48 -9
-101 -20 -53 -11 -105 -20 -114 -20 -14 0 -23 29 -49 167 -17 92 -30 168 -28
170 5 5 179 41 202 42 12 1 25 -6 28 -15z m-572 -154 c35 -55 65 -100 68 -100
3 0 44 52 90 115 47 63 87 114 90 115 3 0 4 -81 2 -180 l-3 -180 -35 0 -36 0
7 90 c4 50 5 90 2 90 -2 0 -30 -34 -62 -76 -31 -42 -60 -72 -65 -68 -4 5 -28
40 -54 79 l-46 70 0 -56 c0 -31 -3 -71 -6 -88 -6 -26 -11 -31 -37 -31 l-30 0
6 68 c4 37 7 119 7 182 1 115 1 115 20 92 10 -13 47 -68 82 -122z"/>
<path d="M3693 1746 c-56 -25 -80 -105 -49 -164 32 -63 122 -74 174 -23 92 93
-7 240 -125 187z"/>
<path d="M1822 3438 c-26 -26 1 -65 38 -53 32 10 20 65 -15 65 -6 0 -16 -5
-23 -12z"/>
<path d="M2420 3436 c-27 -33 18 -72 48 -42 13 13 14 20 6 34 -15 23 -38 26
-54 8z"/>
<path d="M7130 3500 c0 -5 5 -10 10 -10 6 0 10 5 10 10 0 6 -4 10 -10 10 -5 0
-10 -4 -10 -10z"/>
<path d="M7116 3424 c-9 -8 -16 -18 -16 -22 1 -38 63 -42 68 -5 4 30 -31 49
-52 27z"/>
<path d="M6594 3496 c-13 -10 -19 -27 -19 -56 0 -29 6 -46 19 -56 24 -17 53
-3 62 31 14 58 -24 108 -62 81z"/>
<path d="M6860 3490 c-41 -41 -7 -135 39 -110 11 5 22 23 26 40 14 63 -27 108
-65 70z"/>
<path d="M2047 3443 c-13 -13 -7 -21 13 -16 11 3 20 9 20 14 0 10 -24 12 -33
2z"/>
<path d="M2647 3443 c-13 -13 -7 -21 13 -16 11 3 20 9 20 14 0 10 -24 12 -33
2z"/>
</g>
</svg>
